<?xml version="1.0" encoding="UTF-8" standalone="no"?>
<!-- Created with Inkscape (http://www.inkscape.org/) -->

<svg
   xmlns:dc="http://purl.org/dc/elements/1.1/"
   xmlns:cc="http://creativecommons.org/ns#"
   xmlns:rdf="http://www.w3.org/1999/02/22-rdf-syntax-ns#"
   xmlns:svg="http://www.w3.org/2000/svg"
   xmlns="http://www.w3.org/2000/svg"
   xmlns:xlink="http://www.w3.org/1999/xlink"
   xmlns:sodipodi="http://sodipodi.sourceforge.net/DTD/sodipodi-0.dtd"
   xmlns:inkscape="http://www.inkscape.org/namespaces/inkscape"
   width="140"
   height="140"
   viewBox="0 0 140 140"
   id="svg2"
   version="1.1"
   inkscape:version="0.91 r"
   sodipodi:docname="ferret.svg"
   inkscape:export-filename="/home/alex/workspace/ferret/icon.png"
   inkscape:export-xdpi="164.57001"
   inkscape:export-ydpi="164.57001">
  <defs
     id="defs4">
    <linearGradient
       inkscape:collect="always"
       id="linearGradient4182">
      <stop
         style="stop-color:#ffffff;stop-opacity:1"
         offset="0"
         id="stop4184" />
      <stop
         id="stop4190"
         offset="0.44276264"
         style="stop-color:#e7e7e7;stop-opacity:1" />
      <stop
         style="stop-color:#acacac;stop-opacity:1"
         offset="1"
         id="stop4186" />
    </linearGradient>
    <linearGradient
       id="linearGradient4322"
       inkscape:collect="always">
      <stop
         style="stop-color:#787878;stop-opacity:1"
         offset="0"
         id="stop4324" />
      <stop
         style="stop-color:#2a2a2a;stop-opacity:1"
         offset="1"
         id="stop4326" />
    </linearGradient>
    <linearGradient
       inkscape:collect="always"
       id="linearGradient4308">
      <stop
         id="stop4316"
         offset="0"
         style="stop-color:#969696;stop-opacity:1" />
      <stop
         id="stop4318"
         offset="1"
         style="stop-color:#2a2a2a;stop-opacity:1" />
    </linearGradient>
    <linearGradient
       inkscape:collect="always"
       id="linearGradient4270">
      <stop
         style="stop-color:#2a2a2a;stop-opacity:1"
         offset="0"
         id="stop4304" />
      <stop
         style="stop-color:#ffffff;stop-opacity:1"
         offset="1"
         id="stop4306" />
    </linearGradient>
    <radialGradient
       inkscape:collect="always"
       xlink:href="#linearGradient4270"
       id="radialGradient4276"
       cx="203.40373"
       cy="276.74063"
       fx="203.40373"
       fy="276.74063"
       r="15.434927"
       gradientTransform="matrix(4.6385145,1.2428862,-1.0228187,3.8172112,-472.05412,-1039.1336)"
       gradientUnits="userSpaceOnUse" />
    <radialGradient
       inkscape:collect="always"
       xlink:href="#linearGradient4270"
       id="radialGradient4298"
       cx="287.06433"
       cy="260.65466"
       fx="287.06433"
       fy="260.65466"
       r="15.434927"
       gradientTransform="matrix(-1.0383003,-3.8749894,4.5095886,-1.2083404,-584.85073,1697.5697)"
       gradientUnits="userSpaceOnUse" />
    <radialGradient
       inkscape:collect="always"
       xlink:href="#linearGradient4308"
       id="radialGradient4300"
       cx="233.37445"
       cy="248.38123"
       fx="233.37445"
       fy="248.38123"
       r="45.575371"
       gradientTransform="matrix(-1.5013515,-3.1288664e-7,2.6933248e-7,-1.2923618,601.24521,576.2698)"
       gradientUnits="userSpaceOnUse" />
    <radialGradient
       inkscape:collect="always"
       xlink:href="#linearGradient4322"
       id="radialGradient4312"
       cx="244.20795"
       cy="298.21811"
       fx="244.20795"
       fy="298.21811"
       r="13.077941"
       gradientTransform="matrix(-1.7336029,0,0,-1.127117,668.75021,634.44839)"
       gradientUnits="userSpaceOnUse" />
    <radialGradient
       inkscape:collect="always"
       xlink:href="#linearGradient4182"
       id="radialGradient4188"
       cx="248.46822"
       cy="249.56851"
       fx="248.46822"
       fy="249.56851"
       r="63.26781"
       gradientTransform="matrix(0,-1.1679343,1.0656381,0,-17.481499,544.79794)"
       gradientUnits="userSpaceOnUse" />
  </defs>
  <sodipodi:namedview
     id="base"
     pagecolor="#ffffff"
     bordercolor="#666666"
     borderopacity="1.0"
     inkscape:pageopacity="0"
     inkscape:pageshadow="2"
     inkscape:zoom="2.8284271"
     inkscape:cx="14.152451"
     inkscape:cy="16.161756"
     inkscape:document-units="px"
     inkscape:current-layer="layer1"
     showgrid="false"
     inkscape:window-width="1920"
     inkscape:window-height="1173"
     inkscape:window-x="0"
     inkscape:window-y="0"
     inkscape:window-maximized="1"
     fit-margin-top="0"
     fit-margin-left="0"
     fit-margin-right="0"
     fit-margin-bottom="0"
     units="px" />
  <metadata
     id="metadata7">
    <rdf:RDF>
      <cc:Work
         rdf:about="">
        <dc:format>image/svg+xml</dc:format>
        <dc:type
           rdf:resource="http://purl.org/dc/dcmitype/StillImage" />
        <dc:title />
      </cc:Work>
    </rdf:RDF>
  </metadata>
  <g
     inkscape:label="Layer 1"
     inkscape:groupmode="layer"
     id="layer1"
     transform="translate(-170.36872,-201.93988)">
    <path
       style="opacity:1;fill:#2a2a2a;fill-opacity:1;stroke:none;stroke-width:1;stroke-linecap:butt;stroke-linejoin:miter;stroke-miterlimit:4;stroke-dasharray:none;stroke-dashoffset:11.19999981;stroke-opacity:1"
       d="m 196.02129,221.64195 c -5.43228,0 -10.26916,4.91741 -14.10033,10.47094 c -6.81943,9.88523 -10.31231,23.89289 -7.30686,33.99769 c 3.30606,11.11553 17.87678,35.90148 29.10974,47.75116 c 14.71195,15.51968 24.6374,17.29477 36.64103,17.29477 c 12.00363,0 21.92908,-1.77509 36.64103,-17.29477 c 11.23297,-11.84968 26.26365,-37.27358 29.35244,-48.7292 c 2.14258,-7.94637 0.35898,-20.6298 -5.23899,-30.48926 c -3.74534,-6.5965 -9.14767,-12.83492 -16.41089,-12.86431 c -6.91076,-0.028 -8.78364,2.33886 -14.24772,6.22613 c -11.03608,7.85137 -19.61096,9.41082 -30.14154,9.46313 c -10.40254,0.0517 -18.83038,-1.20041 -29.86645,-9.05181 c -5.46408,-3.88727 -6.90299,-6.77447 -14.43146,-6.77447 z"
       id="path4277"
       inkscape:connector-curvature="0"
       sodipodi:nodetypes="ssssssssssass" />
    <path
       style="opacity:1;fill:url(#radialGradient4188);fill-opacity:1;stroke:none;stroke-width:1;stroke-linecap:butt;stroke-linejoin:miter;stroke-miterlimit:4;stroke-dasharray:none;stroke-dashoffset:11.19999981;stroke-opacity:1"
       d="m 196.90496,225.15086 c -14.47351,2.23236 -22.12748,30.02014 -19.22922,39.78902 c 3.09827,10.44304 17.17015,35.72513 27.97848,46.82895 c 14.15581,14.54281 23.16408,16.20508 34.71395,16.20508 c 11.54987,0 20.55814,-1.66227 34.71395,-16.20508 c 10.80833,-11.10382 25.42302,-36.24045 27.98034,-46.82895 c 2.76486,-11.44781 -5.26306,-39.7489 -19.25132,-39.86636 c -3.75646,0.0596 -7.07473,3.39645 -12.33228,7.03906 c -10.61888,7.35716 -20.31479,9.00487 -31.11069,9.00487 c -10.7959,0 -20.49181,-1.64771 -31.1107,-9.00487 c -5.25753,-3.64261 -8.59606,-6.90214 -12.35251,-6.96172 z"
       id="path4216"
       inkscape:connector-curvature="0"
       sodipodi:nodetypes="cssssscsasc" />
    <path
       style="opacity:1;fill:url(#radialGradient4300);fill-opacity:1.0;stroke:none;stroke-width:1;stroke-linecap:butt;stroke-linejoin:miter;stroke-miterlimit:4;stroke-dasharray:none;stroke-dashoffset:11.19999981;stroke-opacity:1"
       d="m 213.96042,251.8743 c -1.14937,-0.032 -2.23887,0.19956 -3.13591,0.81445 c -3.43068,2.3516 -8.5391,8.70769 -11.20104,14.4668 c -3.47588,7.52009 -5.555,16.40579 -4.59725,21.72461 c 2.84146,10.22077 10.41041,19.73577 16.41768,23.79101 c -4.3228,-10.04134 6.70361,-19.89516 12.58262,-23.45703 c 3.96634,-2.40305 10.78474,-3.29607 16.34165,-3.29607 c 5.55691,0 12.37531,0.89302 16.34165,3.29607 c 5.87901,3.56187 16.90542,13.41569 12.58262,23.45703 c 6.00726,-4.05524 13.57622,-13.57024 16.41768,-23.79101 c 0.95776,-5.31882 -1.12136,-14.20452 -4.59725,-21.72461 c -2.66193,-5.75911 -7.77036,-12.1152 -11.20104,-14.4668 c -0.89704,-0.61489 -1.98654,-0.84645 -3.13591,-0.81445 c -11.67771,0.62484 -19.20737,1.50586 -26.40775,1.50586 c -7.20038,0 -14.73004,-0.88102 -26.40775,-1.50586 z"
       id="path4201"
       inkscape:connector-curvature="0"
       sodipodi:nodetypes="cssccsasccsscsc" />
    <path
       sodipodi:nodetypes="sssss"
       inkscape:connector-curvature="0"
       id="path4175"
       d="m 225.85303,273.43168 c -0.7604,4.58907 -5.34273,9.34845 -10.03005,11.03611 c -5.26474,1.89556 -10.03005,-4.94104 -10.03005,-11.03611 c 0,-6.09508 0.49695,-10.83638 6.03639,-10.83639 c 5.53946,1e-5 15.01727,4.84015 14.02371,10.83639 z"
       style="opacity:1;fill:#ffffff;stroke:none" />
    <path
       style="opacity:1;fill:#000000;stroke:none"
       d="m 225.89592,272.01935 c -0.7049,4.35163 -4.95273,8.86476 -9.29789,10.4651 c -4.88044,1.79748 -9.29789,-4.68539 -9.29789,-10.4651 c 0,-5.77972 0.46067,-10.2757 5.59575,-10.27571 c 5.13509,10e-6 13.92106,4.58972 13.00003,10.27571 z"
       id="path4146"
       inkscape:connector-curvature="0"
       sodipodi:nodetypes="sssss" />
    <path
       style="opacity:1;fill:#ffffff;stroke:none"
       d="m 254.35252,273.43168 c 0.77124,4.58907 5.41892,9.34845 10.17309,11.03611 c 5.33981,1.89556 10.17307,-4.94104 10.17307,-11.03611 c 0,-6.09508 -0.50403,-10.83638 -6.12248,-10.83639 c -5.61844,1e-5 -15.23141,4.84015 -14.22368,10.83639 z"
       id="path4177"
       inkscape:connector-curvature="0"
       sodipodi:nodetypes="sssss" />
    <path
       sodipodi:nodetypes="sssss"
       inkscape:connector-curvature="0"
       id="path4181"
       d="m 254.52392,272.01935 c 0.70489,4.35163 4.95273,8.86476 9.29789,10.4651 c 4.88044,1.79748 9.29789,-4.68539 9.29789,-10.4651 c 0,-5.77972 -0.46067,-10.2757 -5.59576,-10.27571 c -5.13509,10e-6 -13.92106,4.58972 -13.00002,10.27571 z"
       style="opacity:1;fill:#000000;stroke:none" />
    <path
       style="opacity:1;fill:url(#radialGradient4312);fill-opacity:1;stroke:none;stroke-width:1;stroke-linecap:butt;stroke-linejoin:miter;stroke-miterlimit:4;stroke-dasharray:none;stroke-dashoffset:11.19999981;stroke-opacity:1"
       d="m 227.33219,299.98796 c 0.64593,-3.44445 8.10085,-3.3206 13.18596,-3.2637 c 4.31594,0.22461 12.07807,-0.43586 12.95039,3.70564 c -0.19821,3.00499 -2.08399,7.1466 -4.52276,9.15082 c -2.66295,2.18844 -5.98521,2.1049 -8.48969,2.1049 c -2.29428,0 -5.50697,0.13594 -8.18172,-2.19709 c -2.91903,-2.54609 -5.1974,-7.65072 -4.94218,-9.50057 z"
       id="path4168"
       inkscape:connector-curvature="0"
       sodipodi:nodetypes="cccsssc" />
    <path
       sodipodi:nodetypes="csaaczc"
       inkscape:connector-curvature="0"
       id="path4204"
       d="m 211.45701,244.33567 c 0,-2.77371 -8.81564,-14.40759 -15.47095,-13.54302 c -6.2773,0.81546 -11.14801,10.6366 -13.70767,17.62538 c -2.10703,5.75294 -2.10901,12.38899 -0.75615,18.36442 c 1.16136,5.1296 5.44912,13.94795 7.3762,13.94795 c 1.65418,-0.0256 3.55634,-9.87016 8.44885,-18.7733 c 4.89251,-8.90314 14.10972,-15.53786 14.10972,-17.62143 z"
       style="opacity:1;fill:url(#radialGradient4276);fill-opacity:1;stroke:none;stroke-width:1;stroke-linecap:butt;stroke-linejoin:miter;stroke-miterlimit:4;stroke-dasharray:none;stroke-dashoffset:11.19999981;stroke-opacity:1" />
    <path
       style="opacity:1;fill:url(#radialGradient4298);fill-opacity:1;stroke:none;stroke-width:1;stroke-linecap:butt;stroke-linejoin:miter;stroke-miterlimit:4;stroke-dasharray:none;stroke-dashoffset:11.19999981;stroke-opacity:1"
       d="m 269.10072,244.33567 c 0,-2.77371 8.81564,-14.40759 15.47095,-13.54302 c 6.2773,0.81546 11.14801,10.6366 13.70767,17.62538 c 2.10703,5.75294 2.10901,12.38899 0.75615,18.36442 c -1.16136,5.1296 -5.44912,13.94795 -7.3762,13.94795 c -1.65418,-0.0256 -3.55634,-9.87016 -8.44885,-18.7733 c -4.89251,-8.90314 -14.10972,-15.53786 -14.10972,-17.62143 z"
       id="path4292"
       inkscape:connector-curvature="0"
       sodipodi:nodetypes="csaaczc" />
    <path
       sodipodi:nodetypes="ssss"
       inkscape:connector-curvature="0"
       id="path4154"
       d="m 270.94024,270.87348 c 1.62832,-1.86815 -1.14171,-6.79106 -3.91448,-6.10823 c -1.28489,0.31641 -1.2766,3.30689 -0.28424,4.46694 c 1.47004,1.71844 3.27354,2.70274 4.19872,1.64129 z"
       style="opacity:1;fill:#ffffff;fill-opacity:1;stroke:none;stroke-width:1;stroke-linecap:butt;stroke-linejoin:miter;stroke-miterlimit:4;stroke-dasharray:none;stroke-dashoffset:11.19999981;stroke-opacity:1" />
    <path
       style="opacity:1;fill:#ffffff;fill-opacity:1;stroke:none;stroke-width:1;stroke-linecap:butt;stroke-linejoin:miter;stroke-miterlimit:4;stroke-dasharray:none;stroke-dashoffset:11.19999981;stroke-opacity:1"
       d="m 223.53088,271.62335 c 1.55118,-1.93268 -3.37255,-7.04024 -4.8691,-5.33478 c -0.8728,0.99464 -0.67061,2.9663 0.36801,4.08513 c 1.53855,1.65738 3.61974,2.34777 4.50109,1.24965 z"
       id="path4152"
       inkscape:connector-curvature="0"
       sodipodi:nodetypes="ssss" />
    <path
       style="color:#000000;font-style:normal;font-variant:normal;font-weight:normal;font-stretch:normal;font-size:medium;line-height:normal;font-family:sans-serif;text-indent:0;text-align:start;text-decoration:none;text-decoration-line:none;text-decoration-style:solid;text-decoration-color:#000000;letter-spacing:normal;word-spacing:normal;text-transform:none;direction:ltr;block-progression:tb;writing-mode:lr-tb;baseline-shift:baseline;text-anchor:start;white-space:normal;clip-rule:nonzero;display:inline;overflow:visible;visibility:visible;opacity:1;isolation:auto;mix-blend-mode:normal;color-interpolation:sRGB;color-interpolation-filters:linearRGB;solid-color:#000000;solid-opacity:1;fill:#e6e6e6;fill-opacity:1;fill-rule:nonzero;stroke:none;stroke-width:1;stroke-linecap:butt;stroke-linejoin:miter;stroke-miterlimit:4;stroke-dasharray:none;stroke-dashoffset:11.19999981;stroke-opacity:1;color-rendering:auto;image-rendering:auto;shape-rendering:auto;text-rendering:auto;enable-background:accumulate"
       d="m 197.09949,225.08984 c -0.18685,-0.0116 -0.43048,0.0354 -0.61512,0.0664 c -1.88858,0.31723 -3.82375,1.19673 -5.64069,2.55544 c -3.01937,2.2579 -5.73621,5.68097 -7.50384,8.90745 c -1.17848,2.1511 -2.42351,4.75212 -3.52997,7.39131 c -1.1751,2.80292 -2.1955,7.05151 -2.57073,9.70782 c -0.52382,3.70825 -0.46463,6.37465 0.14588,9.74269 c 0.53084,2.92828 2.5144,8.22028 3.68711,10.92194 c 2.5246,5.81611 5.10003,8.52085 7.6582,13.61719 l 0.002,0.002 c 0.0235,0.0462 0.15769,0.24518 0.18469,0.28945 c 9.3819,15.56148 20.75811,33.18875 40.0731,38.60704 c 0.0437,0.0125 0.0884,0.0238 0.13282,0.0332 l 0.002,0.002 c 13.94747,2.86627 29.99898,0.67252 40.52344,-10.01562 c 14.62178,-13.2842 24.7823,-30.73675 32.32617,-48.51563 l 0.002,-0.002 c 0.0241,-0.0565 0.0457,-0.11533 0.0645,-0.17383 l 0,-0.002 c 0.54693,-1.72664 1.08986,-3.29964 1.33469,-5.06027 c 1.33585,-9.60653 -1.62133,-19.70082 -6.3779,-27.99024 c -0.71566,-1.2472 -1.56367,-2.423 -2.34742,-3.5823 c -0.0241,-0.0356 -0.0498,-0.0715 -0.0762,-0.10547 c -2.44937,-3.15526 -6.12952,-6.45192 -11.00586,-6.38867 c -1.05712,0.0137 -2.03979,0.38569 -2.99156,0.7903 c -1.52353,0.71385 -3.06727,1.88879 -4.44462,2.77423 c -2.21077,1.42122 -4.26534,2.97656 -6.30467,4.41072 c -2.57089,1.80798 -5.43005,3.32962 -7.92237,4.33468 c -0.0894,0.0361 -0.17909,0.0712 -0.26955,0.10464 c -6.91523,2.55373 -14.36689,3.63124 -21.79799,3.58049 c -7.84981,-0.0536 -15.67666,-1.38975 -22.82401,-4.48338 l -0.004,-0.002 c -0.0297,-0.0132 -0.0596,-0.0254 -0.0899,-0.0371 l -0.002,0 l -0.002,-0.002 c -3.59453,-1.34286 -6.85763,-3.86839 -10.38089,-6.40138 c -2.67585,-1.92375 -5.94104,-4.68364 -8.83982,-5.0244 c -0.20553,-0.0288 -0.41867,-0.0417 -0.59549,-0.0527 z m 9.02227,5.82596 c 3.43847,2.4931 6.66087,5.17721 10.44269,6.59004 c 0.0144,0.006 0.0289,0.0113 0.043,0.0176 l 0.002,0 l 0.002,0.002 c 7.26314,3.14446 15.23434,4.49315 23.22639,4.54105 c 7.96676,-0.4044 15.90491,-1.48429 22.32638,-3.68361 c 5.18326,-1.77524 9.46044,-5.52192 14.23693,-8.66806 c 1.35876,-0.89497 2.99471,-2.04663 4.4735,-2.76459 c 0.85252,-0.41391 1.01077,-0.52745 1.93801,-0.79586 c 0.61192,-0.17713 1.28015,-0.0816 1.83445,-0.0249 c 3.92059,0.40092 6.95586,3.15896 9.13826,5.9703 c 0.0131,0.0169 0.0251,0.0331 0.0371,0.0508 c 0.94962,1.40466 1.93545,2.73972 2.78379,4.27198 c 4.33111,7.82279 7.03678,17.26098 5.95174,26.11226 c -0.22987,1.87525 -0.89025,3.55923 -1.46991,5.3892 c -0.009,0.0288 -0.0193,0.0561 -0.0312,0.084 l -0.002,0.002 c -7.51326,17.7073 -17.61648,35.0367 -32.09766,48.18554 l -0.01,0.01 l -0.01,0.01 c -10.21508,10.37395 -25.90886,12.5538 -39.60938,9.73828 l 0.002,0.002 c -0.0226,-0.005 -0.0442,-0.0112 -0.0664,-0.0176 l -0.002,0 l -0.002,0 c -18.86578,-5.29227 -30.22847,-22.77789 -39.59766,-38.31836 l 0,-0.002 c -0.013,-0.0212 -0.0258,-0.0443 -0.0371,-0.0664 l -0.002,-0.002 c -2.59546,-5.17015 -6.0914,-10.54106 -8.57032,-16.25195 c -1.21318,-2.79491 -2.24758,-5.35421 -2.72674,-8.33999 c -0.47415,-2.95453 -0.33071,-6.55659 -0.20728,-7.39769 c 0.11904,-0.8111 0.1864,-1.63682 0.47528,-3.00389 c 1.08116,-5.11641 2.03559,-7.8913 2.93014,-10.07608 c 0.77425,-1.89097 1.5857,-3.32163 2.69076,-5.38013 c 1.73266,-3.22759 4.06717,-6.29792 7.00138,-8.41356 c 2.22447,-1.45084 3.51812,-2.51243 5.84823,-2.59235 c 1.89444,-0.004 4.00392,1.3492 6.02461,2.69578 c 1.00264,0.67094 2.04682,1.41121 3.03297,2.12623 z"
       id="path4169"
       inkscape:connector-curvature="0"
       sodipodi:nodetypes="sssssssscccccccccccssccscssssscccccscsccccccssssscsscccccccccccccccsssssssccccc" />
  </g>
</svg>
